<svg width="100" height="16" viewBox="0 0 100 16" fill="none" xmlns="http://www.w3.org/2000/svg">
<path d="M8 1.61803L9.32058 5.68237L9.43284 6.02786H9.79611H14.0696L10.6123 8.53976L10.3184 8.75329L10.4306 9.09878L11.7512 13.1631L8.29389 10.6512L8 10.4377L7.70611 10.6512L4.24877 13.1631L5.56936 9.09878L5.68162 8.75329L5.38772 8.53976L1.93039 6.02786H6.20389H6.56716L6.67942 5.68237L8 1.61803Z" fill="#FFE500" stroke="#353535"/>
<path d="M29 1.61803L30.3206 5.68237L30.4328 6.02786H30.7961H35.0696L31.6123 8.53976L31.3184 8.75329L31.4306 9.09878L32.7512 13.1631L29.2939 10.6512L29 10.4377L28.7061 10.6512L25.2488 13.1631L26.5694 9.09878L26.6816 8.75329L26.3877 8.53976L22.9304 6.02786H27.2039H27.5672L27.6794 5.68237L29 1.61803Z" fill="#FFE500" stroke="#353535"/>
<path d="M50 1.61803L51.3206 5.68237L51.4328 6.02786H51.7961H56.0696L52.6123 8.53976L52.3184 8.75329L52.4306 9.09878L53.7512 13.1631L50.2939 10.6512L50 10.4377L49.7061 10.6512L46.2488 13.1631L47.5694 9.09878L47.6816 8.75329L47.3877 8.53976L43.9304 6.02786H48.2039H48.5672L48.6794 5.68237L50 1.61803Z" fill="#FFE500" stroke="#353535"/>
<path d="M71 1.61803L72.3206 5.68237L72.4328 6.02786H72.7961H77.0696L73.6123 8.53976L73.3184 8.75329L73.4306 9.09878L74.7512 13.1631L71.2939 10.6512L71 10.4377L70.7061 10.6512L67.2488 13.1631L68.5694 9.09878L68.6816 8.75329L68.3877 8.53976L64.9304 6.02786H69.2039H69.5672L69.6794 5.68237L71 1.61803Z" fill="#FFE500" stroke="#353535"/>
<path d="M92 1.61803L93.3206 5.68237L93.4328 6.02786H93.7961H98.0696L94.6123 8.53976L94.3184 8.75329L94.4306 9.09878L95.7512 13.1631L92.2939 10.6512L92 10.4377L91.7061 10.6512L88.2488 13.1631L89.5694 9.09878L89.6816 8.75329L89.3877 8.53976L85.9304 6.02786H90.2039H90.5672L90.6794 5.68237L92 1.61803Z" fill="#FFE500" stroke="#353535"/>
</svg>
