<svg xmlns="http://www.w3.org/2000/svg" xmlns:xlink="http://www.w3.org/1999/xlink" version="1.1" x="0px" y="0px" viewBox="0 0 100 125" style="enable-background:new 0 0 100 100;" xml:space="preserve"><path d="M29.6,47.3l13.5,20.1c0.1,0.1,0.2,0.3,0.3,0.4c1,1,2.6,1,3.6,0s1-2.6,0-3.6l-17.3-17  C29.6,47.1,29.5,47.2,29.6,47.3z M46.6,66.6c-0.2,0.7-1,1.1-1.8,0.9c-0.7-0.2-1.1-1-0.9-1.8c0.2-0.7,1-1.1,1.8-0.9  C46.4,65,46.8,65.8,46.6,66.6z"/><path d="M41.2,37.5c0.1,0.4,0.6,0.7,1,0.7c0.9-0.1,1.9-0.1,2.8-0.1c1.5,0,2.9,0.1,4.3,0.3c0.6,0.1,1.2-0.4,1.2-1  v-6.9c0-0.6-0.5-1-1-1c-3.2,0.1-6.4,0.7-9.3,1.6c-0.5,0.2-0.8,0.7-0.6,1.3L41.2,37.5z"/><path d="M52,38.9c2.1,0.5,4.2,1.3,6.2,2.2c0.5,0.3,1.2,0,1.4-0.6l2.7-8.2c0.2-0.5-0.1-1.1-0.6-1.3  c-3-0.9-6.1-1.5-9.3-1.6c-0.6,0-1,0.4-1,1v7.5C51.3,38.4,51.6,38.8,52,38.9z"/><path d="M81,47.1l-8.4,6.1c-0.4,0.3-0.5,0.8-0.3,1.3c0.9,1.6,1.6,3.2,2.2,4.9c0.2,0.5,0.7,0.8,1.2,0.6l9.8-3.2  c0.5-0.2,0.8-0.7,0.6-1.3c-1-2.9-2.3-5.7-3.8-8.2C82.1,46.9,81.5,46.8,81,47.1z"/><path d="M32.4,41c2.3-1.1,4.7-2,7.2-2.5c0.6-0.1,1-0.7,0.8-1.3l-1.5-4.7c-0.2-0.5-0.8-0.8-1.3-0.6  c-2.9,1.2-5.7,2.7-8.2,4.6c-0.4,0.3-0.5,0.9-0.2,1.4l2,2.8C31.5,41.1,32,41.2,32.4,41z"/><path d="M63,32.6l-2.8,8.6c-0.1,0.4,0,0.9,0.4,1.1c1.7,1,3.4,2.2,4.9,3.6c0.4,0.4,1.1,0.3,1.5-0.1l5.7-7.9  c0.3-0.4,0.2-1.1-0.2-1.4c-2.5-1.9-5.3-3.4-8.2-4.6C63.8,31.8,63.1,32.1,63,32.6z"/><path d="M67.4,47.8c1.3,1.4,2.5,2.8,3.5,4.4c0.3,0.5,0.9,0.6,1.4,0.3l8.3-6c0.4-0.3,0.5-0.9,0.2-1.4  c-1.8-2.5-3.9-4.8-6.2-6.8c-0.4-0.4-1.1-0.3-1.5,0.2l-5.9,8.1C67,46.9,67.1,47.5,67.4,47.8z"/><path d="M26.3,49.1c1.7-1.8,3.5-3.2,5.6-4.5c0.5-0.3,0.6-1,0.3-1.4L26.9,36c-0.3-0.5-1-0.5-1.4-0.2  c-2.5,2.1-5,4.8-7,7.4c-0.3,0.4-0.2,1.1,0.2,1.4l6.3,4.5C25.4,49.5,25.9,49.4,26.3,49.1z"/><path d="M16.2,56.8l0.5,0.2c0.5,0.2,1-0.1,1.2-0.6c1.1-2.6,2.5-5,4.2-7.1c0.4-0.4,0.3-1.1-0.2-1.4l-1.2-0.8  c-0.5-0.3-1.1-0.2-1.4,0.3c-1.6,2.5-2.9,5.3-3.8,8.2C15.4,56.1,15.7,56.7,16.2,56.8z"/><path d="M75.3,61.9c0.4,1.7,0.7,3.5,0.9,5.3c0,0.5,0.5,0.9,1,0.9h10.2c0.6,0,1-0.5,1-1c-0.1-3.1-0.5-6-1.3-8.9  c-0.1-0.6-0.7-0.9-1.3-0.7L76,60.7C75.5,60.9,75.2,61.4,75.3,61.9z"/><path d="M15.3,68.1c0.1-3.2,0.7-6.3,1.7-9.2c0.2-0.5-0.1-1.1-0.6-1.3l-0.3-0.1c-0.5-0.2-1.1,0.1-1.3,0.7  c-0.8,3.2-1.3,6.5-1.3,9.9H15.3z"/><text x="0" y="115" fill="#000000" font-size="5px" font-weight="bold" font-family="'Helvetica Neue', Helvetica, Arial-Unicode, Arial, Sans-serif">Created by Thanh Nguyen</text><text x="0" y="120" fill="#000000" font-size="5px" font-weight="bold" font-family="'Helvetica Neue', Helvetica, Arial-Unicode, Arial, Sans-serif">from the Noun Project</text></svg>