<svg width="30" height="25" viewBox="0 0 30 25" fill="none" xmlns="http://www.w3.org/2000/svg">
<path d="M30 2.86807C28.8958 3.36998 27.7055 3.69981 26.4723 3.85755C27.7342 3.09751 28.7094 1.89293 29.1683 0.444551C27.978 1.16157 26.6587 1.66348 25.2677 1.95029C24.1348 0.717017 22.543 0 20.7361 0C17.3662 0 14.6128 2.75335 14.6128 6.15201C14.6128 6.63958 14.6702 7.11281 14.7706 7.55736C9.66539 7.29924 5.1195 4.84704 2.09369 1.13289C1.5631 2.03633 1.26195 3.09751 1.26195 4.21606C1.26195 6.35277 2.33748 8.2457 4.00096 9.32123C2.98279 9.32123 2.03633 9.03442 1.20459 8.60421V8.64723C1.20459 11.63 3.32696 14.1252 6.13767 14.6845C5.23527 14.9315 4.2879 14.9658 3.36998 14.7849C3.75947 16.0074 4.52228 17.0771 5.55117 17.8436C6.58006 18.6101 7.8233 19.0349 9.10612 19.0583C6.93159 20.7798 4.23613 21.7103 1.46272 21.6969C0.975143 21.6969 0.487572 21.6683 0 21.6109C2.72467 23.3604 5.96558 24.3786 9.43595 24.3786C20.7361 24.3786 26.9455 15 26.9455 6.86903C26.9455 6.59656 26.9455 6.33843 26.9312 6.06597C28.1358 5.20554 29.1683 4.11568 30 2.86807Z" fill="#49bfc6"/>
</svg>
