<svg width="30" height="30" viewBox="0 0 30 30" fill="none" xmlns="http://www.w3.org/2000/svg">
<path d="M15 0C6.74999 0 0 6.73499 0 15.03C0 22.53 5.48999 28.755 12.66 29.88V19.38H8.84999V15.03H12.66V11.715C12.66 7.94999 14.895 5.87999 18.33 5.87999C19.965 5.87999 21.675 6.16499 21.675 6.16499V9.86999H19.785C17.925 9.86999 17.34 11.025 17.34 12.21V15.03H21.51L20.835 19.38H17.34V29.88C20.8746 29.3217 24.0933 27.5182 26.4149 24.7951C28.7364 22.0719 30.008 18.6084 30 15.03C30 6.73499 23.25 0 15 0Z" fill="#49bfc6"/>
</svg>
